<?xml version="1.0" encoding="UTF-8" standalone="no"?>
<!-- Created with Inkscape (http://www.inkscape.org/) -->

<svg
   xmlns:dc="http://purl.org/dc/elements/1.1/"
   xmlns:cc="http://creativecommons.org/ns#"
   xmlns:rdf="http://www.w3.org/1999/02/22-rdf-syntax-ns#"
   xmlns:svg="http://www.w3.org/2000/svg"
   xmlns="http://www.w3.org/2000/svg"
   xmlns:sodipodi="http://sodipodi.sourceforge.net/DTD/sodipodi-0.dtd"
   xmlns:inkscape="http://www.inkscape.org/namespaces/inkscape"
   width="64px"
   height="64px"
   id="svg2985"
   version="1.1"
   inkscape:version="0.48.4 r9939"
   sodipodi:docname="dna button.svg">
  <defs
     id="defs2987">
    <clipPath
       clipPathUnits="userSpaceOnUse"
       id="clipPath3778">
      <path
         sodipodi:type="arc"
         style="color:#000000;fill:#ff0000;fill-opacity:1;fill-rule:nonzero;stroke:#000000;stroke-width:6;stroke-linecap:butt;stroke-linejoin:miter;stroke-miterlimit:4;stroke-opacity:1;stroke-dasharray:none;stroke-dashoffset:0;marker:none;visibility:visible;display:inline;overflow:visible;enable-background:accumulate"
         id="path3780"
         sodipodi:cx="-82.545456"
         sodipodi:cy="64.727272"
         sodipodi:rx="71.63636"
         sodipodi:ry="65.454544"
         d="m -10.909096,64.727272 a 71.63636,65.454544 0 1 1 -143.272724,0 71.63636,65.454544 0 1 1 143.272724,0 z"
         transform="translate(63.272727,3.6363636)" />
    </clipPath>
  </defs>
  <sodipodi:namedview
     id="base"
     pagecolor="#ffffff"
     bordercolor="#666666"
     borderopacity="1.0"
     inkscape:pageopacity="0.0"
     inkscape:pageshadow="2"
     inkscape:zoom="7.7781746"
     inkscape:cx="-0.33809047"
     inkscape:cy="36.467236"
     inkscape:current-layer="layer1"
     showgrid="true"
     inkscape:document-units="px"
     inkscape:grid-bbox="true"
     inkscape:window-width="1440"
     inkscape:window-height="823"
     inkscape:window-x="-4"
     inkscape:window-y="-4"
     inkscape:window-maximized="1" />
  <metadata
     id="metadata2990">
    <rdf:RDF>
      <cc:Work
         rdf:about="">
        <dc:format>image/svg+xml</dc:format>
        <dc:type
           rdf:resource="http://purl.org/dc/dcmitype/StillImage" />
        <dc:title></dc:title>
      </cc:Work>
    </rdf:RDF>
  </metadata>
  <g
     id="layer1"
     inkscape:label="Layer 1"
     inkscape:groupmode="layer">
    <g
       id="g3849"
       inkscape:export-filename="K:\Jaxel Development\Extinction\Assets\Sprites\dnaButton.png"
       inkscape:export-xdpi="90"
       inkscape:export-ydpi="90"
       transform="matrix(-0.42156862,-0.65918849,0.81603906,-0.52187876,19.890687,69.911244)">
      <path
         sodipodi:type="arc"
         style="color:#000000;fill:#999999;fill-opacity:1;fill-rule:nonzero;stroke:#000000;stroke-width:6;stroke-linecap:butt;stroke-linejoin:miter;stroke-miterlimit:4;stroke-opacity:1;stroke-dasharray:none;stroke-dashoffset:0;marker:none;visibility:visible;display:inline;overflow:visible;enable-background:accumulate"
         id="path3818"
         sodipodi:cx="15.636364"
         sodipodi:cy="60.18182"
         sodipodi:rx="40.363636"
         sodipodi:ry="28.727272"
         d="m 56,60.18182 c 0,15.865634 -18.071415,28.727272 -40.363636,28.727272 -22.2922206,0 -40.363636,-12.861638 -40.363636,-28.727272 0,-15.865634 18.0714154,-28.727272 40.363636,-28.727272 C 37.928585,31.454548 56,44.316186 56,60.18182 z"
         transform="matrix(0.92020999,0,0,1.0492824,18.104023,-31.706609)" />
      <path
         sodipodi:nodetypes="ccccc"
         inkscape:connector-curvature="0"
         id="path3812"
         d="m 32.253365,35.361268 10.86927,0 -4.127566,3.302059 -6.741704,0.275172 z"
         style="color:#000000;fill:#ff00ff;fill-opacity:1;fill-rule:nonzero;stroke:none;stroke-width:6;marker:none;visibility:visible;display:inline;overflow:visible;enable-background:accumulate" />
      <path
         sodipodi:nodetypes="ccccc"
         inkscape:connector-curvature="0"
         id="rect3795"
         d="m 33.04836,9.784843 10.869269,0 -4.127566,3.302058 -6.741703,0.275172 z"
         style="color:#000000;fill:#00ff00;fill-opacity:1;fill-rule:nonzero;stroke:none;stroke-width:6;marker:none;visibility:visible;display:inline;overflow:visible;enable-background:accumulate" />
      <path
         sodipodi:nodetypes="ccccc"
         inkscape:connector-curvature="0"
         id="path3804"
         d="m 32.318335,26.319811 -10.869269,0 4.127577,-3.302058 6.741692,-0.275172 z"
         style="color:#000000;fill:#ffff00;fill-opacity:1;fill-rule:nonzero;stroke:none;stroke-width:6;marker:none;visibility:visible;display:inline;overflow:visible;enable-background:accumulate" />
      <path
         sodipodi:nodetypes="cccccccccccccccccccc"
         inkscape:connector-curvature="0"
         id="rect3784"
         d="m 15.601583,26.202794 7.821522,-7.296587 9.938342,-5.788625 12.808625,-11.625893 2.367988,1.8484677 2.367978,1.8484678 -6.494014,8.4153955 -7.498599,5.885913 -16.288847,11.771825 7.72846,3.835592 9.199918,6.931271 6.561444,6.862479 5.843096,8.625102 -5.167468,4.428734 L 39.88427,53.672982 29.346377,43.887583 22.461753,39.605616 18.723011,37.7314 14.81225,31.942773 z"
         style="color:#000000;fill:#0000ff;fill-opacity:1;fill-rule:nonzero;stroke:none;stroke-width:6;marker:none;visibility:visible;display:inline;overflow:visible;enable-background:accumulate" />
      <path
         style="color:#000000;fill:#ffff00;fill-opacity:1;fill-rule:nonzero;stroke:none;stroke-width:6;marker:none;visibility:visible;display:inline;overflow:visible;enable-background:accumulate"
         d="m 32.115774,35.498854 -10.869269,0 4.127577,3.302059 6.741692,0.275172 z"
         id="path3810"
         inkscape:connector-curvature="0"
         sodipodi:nodetypes="ccccc" />
      <path
         sodipodi:nodetypes="ccccc"
         inkscape:connector-curvature="0"
         id="path3816"
         d="m 31.732355,52.092893 -10.86928,0 4.127577,-3.302059 6.741703,-0.275171 z"
         style="color:#000000;fill:#ff0000;fill-opacity:1;fill-rule:nonzero;stroke:none;stroke-width:6;marker:none;visibility:visible;display:inline;overflow:visible;enable-background:accumulate" />
      <path
         sodipodi:nodetypes="cccccccccccccccccccc"
         inkscape:connector-curvature="0"
         id="path3800"
         d="M 48.051702,25.648401 40.525331,18.351814 30.962018,12.563189 18.636734,0.93729483 16.358115,2.7857626 l -2.278629,1.8484688 6.248945,8.4153956 7.215648,5.885913 15.674175,11.771825 -7.436829,3.835592 -8.852745,6.931271 -6.313851,6.862478 -5.622588,8.625103 4.972462,4.428734 4.720641,-8.271954 10.14024,-9.785399 6.624809,-4.281966 3.597674,-1.874217 3.763174,-5.788627 z"
         style="color:#000000;fill:#0000ff;fill-opacity:1;fill-rule:nonzero;stroke:none;stroke-width:6;marker:none;visibility:visible;display:inline;overflow:visible;enable-background:accumulate" />
      <path
         sodipodi:nodetypes="ccccc"
         inkscape:connector-curvature="0"
         id="path3808"
         d="M 32.032804,28.553495 45.785782,28.514615 43.701388,32.245818 32.032804,32.13073 z"
         style="color:#000000;fill:#ff0000;fill-opacity:1;fill-rule:nonzero;stroke:none;stroke-width:6;marker:none;visibility:visible;display:inline;overflow:visible;enable-background:accumulate" />
      <path
         style="color:#000000;fill:#ff0000;fill-opacity:1;fill-rule:nonzero;stroke:none;stroke-width:6;marker:none;visibility:visible;display:inline;overflow:visible;enable-background:accumulate"
         d="m 32.910768,9.9224289 -10.869269,0 4.127566,3.3020581 6.741703,0.275172 z"
         id="path3798"
         inkscape:connector-curvature="0"
         sodipodi:nodetypes="ccccc" />
      <path
         style="color:#000000;fill:#ff00ff;fill-opacity:1;fill-rule:nonzero;stroke:none;stroke-width:6;marker:none;visibility:visible;display:inline;overflow:visible;enable-background:accumulate"
         d="m 32.455926,26.457397 10.86927,0 -4.127566,-3.302058 -6.741704,-0.275172 z"
         id="path3802"
         inkscape:connector-curvature="0"
         sodipodi:nodetypes="ccccc" />
      <path
         style="color:#000000;fill:#00ff00;fill-opacity:1;fill-rule:nonzero;stroke:none;stroke-width:6;marker:none;visibility:visible;display:inline;overflow:visible;enable-background:accumulate"
         d="m 32.02755,32.120946 -12.455063,0 3.397424,-3.199997 9.218709,-0.298661 z"
         id="path3806"
         inkscape:connector-curvature="0"
         sodipodi:nodetypes="ccccc" />
      <path
         style="color:#000000;fill:#00ff00;fill-opacity:1;fill-rule:nonzero;stroke:none;stroke-width:6;marker:none;visibility:visible;display:inline;overflow:visible;enable-background:accumulate"
         d="m 31.869936,52.230479 10.86928,0 -4.127577,-3.302059 -6.741703,-0.275171 z"
         id="path3814"
         inkscape:connector-curvature="0"
         sodipodi:nodetypes="ccccc" />
      <path
         transform="matrix(0.92020999,0,0,1.0492824,18.104023,-31.706609)"
         d="m 56,60.18182 c 0,15.865634 -18.071415,28.727272 -40.363636,28.727272 -22.2922206,0 -40.363636,-12.861638 -40.363636,-28.727272 0,-15.865634 18.0714154,-28.727272 40.363636,-28.727272 C 37.928585,31.454548 56,44.316186 56,60.18182 z"
         sodipodi:ry="28.727272"
         sodipodi:rx="40.363636"
         sodipodi:cy="60.18182"
         sodipodi:cx="15.636364"
         id="path3782"
         style="color:#000000;fill:none;stroke:#000000;stroke-width:6;stroke-linecap:butt;stroke-linejoin:miter;stroke-miterlimit:4;stroke-opacity:1;stroke-dasharray:none;stroke-dashoffset:0;marker:none;visibility:visible;display:inline;overflow:visible;enable-background:accumulate"
         sodipodi:type="arc" />
      <path
         sodipodi:nodetypes="ccccc"
         inkscape:connector-curvature="0"
         id="rect3846"
         d="m 45.181817,30.181819 1.545456,0.545454 -2,2.272728 -5.272728,-0.272728 z"
         style="color:#000000;fill:#0000ff;fill-opacity:1;fill-rule:nonzero;stroke:none;stroke-width:6;marker:none;visibility:visible;display:inline;overflow:visible;enable-background:accumulate" />
    </g>
  </g>
</svg>
